<svg width="26" height="25" viewBox="0 0 26 25" fill="none" xmlns="http://www.w3.org/2000/svg">
<path d="M25.1443 6.96714C25.4368 6.67386 25.4361 6.19899 25.1429 5.90648L20.3637 1.13973C20.0704 0.847222 19.5955 0.847841 19.303 1.14112C19.0105 1.43439 19.0111 1.90926 19.3044 2.20178L23.5526 6.43888L19.3155 10.687C19.023 10.9803 19.0236 11.4552 19.3168 11.7477C19.6101 12.0402 20.085 12.0396 20.3775 11.7463L25.1443 6.96714ZM8.9574 22.812C6.41288 22.812 4.34601 21.8214 3.09463 20.3969C1.84982 18.9798 1.39398 17.1234 2.04829 15.2634C2.7085 13.3866 4.54879 11.3743 8.16875 9.81891C11.7859 8.26471 17.1186 7.19727 24.6142 7.1875L24.6123 5.6875C16.992 5.69743 11.4407 6.78041 7.57658 8.44075C3.71533 10.0999 1.4773 12.3663 0.63328 14.7657C-0.216652 17.1818 0.397366 19.5992 1.96769 21.3868C3.53146 23.167 6.02502 24.312 8.9574 24.312V22.812Z" fill="#101517" fill-opacity="0.6"/>
</svg>
