<svg width="16" height="16" viewBox="0 0 16 16" fill="none" xmlns="http://www.w3.org/2000/svg">
<rect width="16" height="16" fill="#E5E5E5"/>
<g id="Product 1" clip-path="url(#clip0_9904_759)">
<rect width="393" height="852" transform="translate(-44 -542)" fill="#FDE599"/>
<g id="Book" filter="url(#filter0_dddd_9904_759)">
<rect x="-24" y="-456" width="353" height="642" rx="16" fill="white"/>
</g>
<g id="Keyboard" filter="url(#filter1_dddd_9904_759)">
<rect x="-24" y="-464" width="353" height="642" rx="16" fill="white"/>
<g id="Content">
<g id="Pricing + Name + Rating">
<g id="Rating">
<g id="Star 1">
<path id="Vector" d="M8.09706 9.13899C8.11775 9.09725 8.14968 9.06213 8.18925 9.03757C8.22883 9.01301 8.27448 9 8.32106 9C8.36764 9 8.41329 9.01301 8.45287 9.03757C8.49245 9.06213 8.52438 9.09725 8.54506 9.13899L10.6141 13.331C10.6319 13.3673 10.6584 13.3988 10.6912 13.4227C10.7239 13.4466 10.762 13.4621 10.8021 13.468L15.4281 14.14C15.4742 14.1467 15.5175 14.1661 15.5531 14.1962C15.5888 14.2262 15.6153 14.2655 15.6298 14.3098C15.6442 14.3541 15.646 14.4016 15.6349 14.4469C15.6239 14.4921 15.6004 14.5334 15.5671 14.566L12.2191 17.829C12.1899 17.8573 12.1681 17.8924 12.1556 17.9311C12.143 17.9698 12.1401 18.0109 12.1471 18.051L12.9371 22.658C12.9447 22.7038 12.9395 22.7509 12.9219 22.7939C12.9043 22.8369 12.875 22.8742 12.8374 22.9015C12.7998 22.9288 12.7554 22.9451 12.709 22.9485C12.6627 22.952 12.6163 22.9424 12.5751 22.921L8.43706 20.746C8.40127 20.7272 8.36147 20.7174 8.32106 20.7174C8.28066 20.7174 8.24085 20.7272 8.20506 20.746L4.06706 22.921C4.02581 22.9427 3.9793 22.9525 3.93279 22.9492C3.88628 22.9459 3.84162 22.9296 3.80386 22.9023C3.7661 22.8749 3.73675 22.8375 3.71911 22.7944C3.70148 22.7512 3.69626 22.704 3.70406 22.658L4.49406 18.051C4.50115 18.011 4.49839 17.9699 4.48602 17.9312C4.47365 17.8925 4.45204 17.8574 4.42306 17.829L1.07506 14.566C1.04177 14.5334 1.01826 14.4921 1.00718 14.4469C0.996092 14.4016 0.997877 14.3541 1.01233 14.3098C1.02679 14.2655 1.05333 14.2262 1.08898 14.1962C1.12462 14.1661 1.16795 14.1467 1.21406 14.14L5.84006 13.468C5.88016 13.4621 5.91822 13.4466 5.95097 13.4227C5.98372 13.3988 6.01018 13.3673 6.02806 13.331L8.09706 9.13899Z" fill="#101517"/>
</g>
</g>
</g>
</g>
</g>
<g id="Charger" filter="url(#filter2_dddd_9904_759)">
<rect x="-24" y="-472" width="353" height="642" rx="16" fill="white"/>
<g id="Content_2">
<g id="Pricing + Name + Rating_2">
<g id="Rating_2">
<g id="Star 1_2">
<path id="Vector_2" d="M8.09706 1.13899C8.11775 1.09725 8.14968 1.06213 8.18925 1.03757C8.22883 1.01301 8.27448 1 8.32106 1C8.36764 1 8.41329 1.01301 8.45287 1.03757C8.49245 1.06213 8.52438 1.09725 8.54506 1.13899L10.6141 5.33099C10.6319 5.36735 10.6584 5.39882 10.6912 5.42269C10.7239 5.44655 10.762 5.4621 10.8021 5.46799L15.4281 6.13999C15.4742 6.14669 15.5175 6.16614 15.5531 6.19615C15.5888 6.22616 15.6153 6.26554 15.6298 6.30984C15.6442 6.35414 15.646 6.4016 15.6349 6.44686C15.6239 6.49212 15.6004 6.53338 15.5671 6.56599L12.2191 9.82899C12.1899 9.85734 12.1681 9.89238 12.1556 9.93107C12.143 9.96975 12.1401 10.0109 12.1471 10.051L12.9371 14.658C12.9447 14.7038 12.9395 14.7509 12.9219 14.7939C12.9043 14.8369 12.875 14.8742 12.8374 14.9015C12.7998 14.9288 12.7554 14.9451 12.709 14.9485C12.6627 14.952 12.6163 14.9424 12.5751 14.921L8.43706 12.746C8.40127 12.7272 8.36147 12.7174 8.32106 12.7174C8.28066 12.7174 8.24085 12.7272 8.20506 12.746L4.06706 14.921C4.02581 14.9427 3.9793 14.9525 3.93279 14.9492C3.88628 14.9459 3.84162 14.9296 3.80386 14.9023C3.7661 14.8749 3.73675 14.8375 3.71911 14.7944C3.70148 14.7512 3.69626 14.704 3.70406 14.658L4.49406 10.051C4.50115 10.011 4.49839 9.96989 4.48602 9.93121C4.47365 9.89252 4.45204 9.85744 4.42306 9.82899L1.07506 6.56599C1.04177 6.53338 1.01826 6.49212 1.00718 6.44686C0.996092 6.4016 0.997877 6.35414 1.01233 6.30984C1.02679 6.26554 1.05333 6.22616 1.08898 6.19615C1.12462 6.16614 1.16795 6.14669 1.21406 6.13999L5.84006 5.46799C5.88016 5.4621 5.91822 5.44655 5.95097 5.42269C5.98372 5.39882 6.01018 5.36735 6.02806 5.33099L8.09706 1.13899Z" fill="#101517"/>
</g>
</g>
</g>
</g>
</g>
</g>
<defs>
<filter id="filter0_dddd_9904_759" x="-78" y="-456" width="461" height="760" filterUnits="userSpaceOnUse" color-interpolation-filters="sRGB">
<feFlood flood-opacity="0" result="BackgroundImageFix"/>
<feColorMatrix in="SourceAlpha" type="matrix" values="0 0 0 0 0 0 0 0 0 0 0 0 0 0 0 0 0 0 127 0" result="hardAlpha"/>
<feOffset dy="2.89843"/>
<feGaussianBlur stdDeviation="1.22278"/>
<feColorMatrix type="matrix" values="0 0 0 0 0 0 0 0 0 0 0 0 0 0 0 0 0 0 0.0243888 0"/>
<feBlend mode="normal" in2="BackgroundImageFix" result="effect1_dropShadow_9904_759"/>
<feColorMatrix in="SourceAlpha" type="matrix" values="0 0 0 0 0 0 0 0 0 0 0 0 0 0 0 0 0 0 127 0" result="hardAlpha"/>
<feOffset dy="8.01379"/>
<feGaussianBlur stdDeviation="3.38082"/>
<feColorMatrix type="matrix" values="0 0 0 0 0 0 0 0 0 0 0 0 0 0 0 0 0 0 0.035 0"/>
<feBlend mode="normal" in2="effect1_dropShadow_9904_759" result="effect2_dropShadow_9904_759"/>
<feColorMatrix in="SourceAlpha" type="matrix" values="0 0 0 0 0 0 0 0 0 0 0 0 0 0 0 0 0 0 127 0" result="hardAlpha"/>
<feOffset dy="19.2941"/>
<feGaussianBlur stdDeviation="8.13971"/>
<feColorMatrix type="matrix" values="0 0 0 0 0 0 0 0 0 0 0 0 0 0 0 0 0 0 0.0456112 0"/>
<feBlend mode="normal" in2="effect2_dropShadow_9904_759" result="effect3_dropShadow_9904_759"/>
<feColorMatrix in="SourceAlpha" type="matrix" values="0 0 0 0 0 0 0 0 0 0 0 0 0 0 0 0 0 0 127 0" result="hardAlpha"/>
<feOffset dy="64"/>
<feGaussianBlur stdDeviation="27"/>
<feColorMatrix type="matrix" values="0 0 0 0 0 0 0 0 0 0 0 0 0 0 0 0 0 0 0.07 0"/>
<feBlend mode="normal" in2="effect3_dropShadow_9904_759" result="effect4_dropShadow_9904_759"/>
<feBlend mode="normal" in="SourceGraphic" in2="effect4_dropShadow_9904_759" result="shape"/>
</filter>
<filter id="filter1_dddd_9904_759" x="-78" y="-464" width="461" height="760" filterUnits="userSpaceOnUse" color-interpolation-filters="sRGB">
<feFlood flood-opacity="0" result="BackgroundImageFix"/>
<feColorMatrix in="SourceAlpha" type="matrix" values="0 0 0 0 0 0 0 0 0 0 0 0 0 0 0 0 0 0 127 0" result="hardAlpha"/>
<feOffset dy="2.89843"/>
<feGaussianBlur stdDeviation="1.22278"/>
<feColorMatrix type="matrix" values="0 0 0 0 0 0 0 0 0 0 0 0 0 0 0 0 0 0 0.0243888 0"/>
<feBlend mode="normal" in2="BackgroundImageFix" result="effect1_dropShadow_9904_759"/>
<feColorMatrix in="SourceAlpha" type="matrix" values="0 0 0 0 0 0 0 0 0 0 0 0 0 0 0 0 0 0 127 0" result="hardAlpha"/>
<feOffset dy="8.01379"/>
<feGaussianBlur stdDeviation="3.38082"/>
<feColorMatrix type="matrix" values="0 0 0 0 0 0 0 0 0 0 0 0 0 0 0 0 0 0 0.035 0"/>
<feBlend mode="normal" in2="effect1_dropShadow_9904_759" result="effect2_dropShadow_9904_759"/>
<feColorMatrix in="SourceAlpha" type="matrix" values="0 0 0 0 0 0 0 0 0 0 0 0 0 0 0 0 0 0 127 0" result="hardAlpha"/>
<feOffset dy="19.2941"/>
<feGaussianBlur stdDeviation="8.13971"/>
<feColorMatrix type="matrix" values="0 0 0 0 0 0 0 0 0 0 0 0 0 0 0 0 0 0 0.0456112 0"/>
<feBlend mode="normal" in2="effect2_dropShadow_9904_759" result="effect3_dropShadow_9904_759"/>
<feColorMatrix in="SourceAlpha" type="matrix" values="0 0 0 0 0 0 0 0 0 0 0 0 0 0 0 0 0 0 127 0" result="hardAlpha"/>
<feOffset dy="64"/>
<feGaussianBlur stdDeviation="27"/>
<feColorMatrix type="matrix" values="0 0 0 0 0 0 0 0 0 0 0 0 0 0 0 0 0 0 0.07 0"/>
<feBlend mode="normal" in2="effect3_dropShadow_9904_759" result="effect4_dropShadow_9904_759"/>
<feBlend mode="normal" in="SourceGraphic" in2="effect4_dropShadow_9904_759" result="shape"/>
</filter>
<filter id="filter2_dddd_9904_759" x="-78" y="-472" width="461" height="760" filterUnits="userSpaceOnUse" color-interpolation-filters="sRGB">
<feFlood flood-opacity="0" result="BackgroundImageFix"/>
<feColorMatrix in="SourceAlpha" type="matrix" values="0 0 0 0 0 0 0 0 0 0 0 0 0 0 0 0 0 0 127 0" result="hardAlpha"/>
<feOffset dy="2.89843"/>
<feGaussianBlur stdDeviation="1.22278"/>
<feColorMatrix type="matrix" values="0 0 0 0 0 0 0 0 0 0 0 0 0 0 0 0 0 0 0.0243888 0"/>
<feBlend mode="normal" in2="BackgroundImageFix" result="effect1_dropShadow_9904_759"/>
<feColorMatrix in="SourceAlpha" type="matrix" values="0 0 0 0 0 0 0 0 0 0 0 0 0 0 0 0 0 0 127 0" result="hardAlpha"/>
<feOffset dy="8.01379"/>
<feGaussianBlur stdDeviation="3.38082"/>
<feColorMatrix type="matrix" values="0 0 0 0 0 0 0 0 0 0 0 0 0 0 0 0 0 0 0.035 0"/>
<feBlend mode="normal" in2="effect1_dropShadow_9904_759" result="effect2_dropShadow_9904_759"/>
<feColorMatrix in="SourceAlpha" type="matrix" values="0 0 0 0 0 0 0 0 0 0 0 0 0 0 0 0 0 0 127 0" result="hardAlpha"/>
<feOffset dy="19.2941"/>
<feGaussianBlur stdDeviation="8.13971"/>
<feColorMatrix type="matrix" values="0 0 0 0 0 0 0 0 0 0 0 0 0 0 0 0 0 0 0.0456112 0"/>
<feBlend mode="normal" in2="effect2_dropShadow_9904_759" result="effect3_dropShadow_9904_759"/>
<feColorMatrix in="SourceAlpha" type="matrix" values="0 0 0 0 0 0 0 0 0 0 0 0 0 0 0 0 0 0 127 0" result="hardAlpha"/>
<feOffset dy="64"/>
<feGaussianBlur stdDeviation="27"/>
<feColorMatrix type="matrix" values="0 0 0 0 0 0 0 0 0 0 0 0 0 0 0 0 0 0 0.07 0"/>
<feBlend mode="normal" in2="effect3_dropShadow_9904_759" result="effect4_dropShadow_9904_759"/>
<feBlend mode="normal" in="SourceGraphic" in2="effect4_dropShadow_9904_759" result="shape"/>
</filter>
<clipPath id="clip0_9904_759">
<rect width="393" height="852" fill="white" transform="translate(-44 -542)"/>
</clipPath>
</defs>
</svg>
